<svg xmlns="http://www.w3.org/2000/svg" width="119.249" height="72.421" viewBox="38.000 74.579 119.249 72.421"><path d="m104.286 76.579-32.143 5.263-16.072 26.316L40 123.948l21.429 15.789L109.643 145l45.606-15.79-8.106-15.789-26.786-10.526-10.714-15.79z" style="fill:#e4e4e4;fill-opacity:1;stroke-width:.281426"/><path d="m72.143 129.21-10.714 10.527L109.643 145zM109.643 145v-15.79h45.606z" style="fill:#d5d5d5;fill-opacity:1;stroke-width:.281426"/><path d="m72.143 81.842 10.714 5.263 21.429-10.526z" style="fill:#fff;fill-opacity:1;stroke-width:.281426"/><path d="m82.857 87.105-26.786 21.053 16.072-26.316M82.857 87.105l37.5 15.79-16.071-26.316Z" style="fill:#f7f7f7;fill-opacity:1;stroke-width:.281426"/><path d="m82.857 87.105 10.714 15.79h26.786z" style="fill:#d5d5d5;fill-opacity:1;stroke-width:.281426"/><path d="m93.571 102.895-37.5 5.263 26.786 10.526z" style="fill:#f7f7f7;fill-opacity:1;stroke-width:.281426"/><path d="m93.571 102.895 16.072 15.79H82.857ZM109.643 118.684l10.714-15.79 26.786 10.527zM40 123.947l42.857-5.263-26.786-10.526Z" style="fill:#fff;fill-opacity:1;stroke-width:.281426"/><path d="M72.143 129.21 40 123.948l42.857-5.263zl37.5-10.527H82.857zM109.643 118.684l45.606 10.527-8.106-15.79z" style="fill:#f7f7f7;fill-opacity:1;stroke-width:.281426"/><path d="M72.143 129.21h37.5v-10.526z" style="fill:#d5d5d5;fill-opacity:1;stroke-width:.281426"/></svg>