<svg xmlns="http://www.w3.org/2000/svg" width="153.665" height="74.000" viewBox="18.256 54.688 153.665 74.000"><path d="m20.256 120.86 4.665-9.172 20-5 10-5 10-15 15 5 10.158-23.376 14.842-11.624 24.39 4.065 7.557 27.174 26.094 12.417 6.959 11.344-20 15L65 120l-20 5z" style="fill:#f7f7f7;fill-opacity:1;stroke-width:.264999"/><path d="m90 68 25 17-35.08 6.688Z" style="fill:#e4e4e4;fill-opacity:1;stroke-width:.264999"/><path d="m115 85-10.08-28.312 24.39 4.065z" style="fill:#fff;fill-opacity:1;stroke-width:.264999"/><path d="m115 85 21.868 2.927L130 100Z" style="fill:#e4e4e4;fill-opacity:1;stroke-width:.264999"/><path d="M79.92 91.688 130 100l-35 5ZM54.92 101.688l25-10-15-5Z" style="fill:#fff;fill-opacity:1;stroke-width:.264999"/><path d="m24.92 111.688-4.664 9.171L65 120ZM65 120l30-5 54.92 11.688z" style="fill:#d5d5d5;fill-opacity:1;stroke-width:.264999"/><path d="M149.92 126.688 145 110l24.92 1.688z" style="fill:#f7f7f7;fill-opacity:1;stroke-width:.264999"/><path d="M44.92 106.688 95 115l-35-15Z" style="fill:#fff;fill-opacity:1;stroke-width:.264999"/><path d="M95 115v-10l-35-5" style="fill:#e4e4e4;fill-opacity:1;stroke-width:.264999"/><path d="m130 100 32.962.344-26.094-12.417z" style="fill:#fff;fill-opacity:1;stroke-width:.264999"/><path d="M162.962 100.344 145 110l24.92 1.688zM95 115l50-5 4.92 16.688zM24.92 111.688 95 115l-30 5Z" style="fill:#e4e4e4;fill-opacity:1;stroke-width:.264999"/></svg>