<svg xmlns="http://www.w3.org/2000/svg" width="139.000" height="39.000" viewBox="18.000 73.000 139.000 39.000"><path d="m20 95 25-5h25l15-10 10-5 15 5 10 10 20 5 15 5-25 10-70-5H30Z" style="fill:#d5d5d5;fill-opacity:1;stroke-width:.264999"/><path d="M85 80h25l-15-5Z" style="fill:#fff;fill-opacity:1;stroke-width:.264999"/><path d="m85 80 10 10 15-10Z" style="fill:#f7f7f7;fill-opacity:1;stroke-width:.264999"/><path d="m85 80 10 10H70zM110 80l10 10H95Z" style="fill:#e4e4e4;fill-opacity:1;stroke-width:.264999"/><path d="m70 90 25 10 25-10Z" style="fill:#f7f7f7;fill-opacity:1;stroke-width:.264999"/><path d="m20 95 40 5 10-10H45Z" style="fill:#fff;fill-opacity:1;stroke-width:.264999"/><path d="m70 90-10 10h35zM20 95l10 10 30-5ZM95 100l45-5-20-5z" style="fill:#e4e4e4;fill-opacity:1;stroke-width:.264999"/><path d="m140 95-45 5h60Z" style="fill:#fff;fill-opacity:1;stroke-width:.264999"/><path d="m95 100 35 10 25-10Z" style="fill:#f7f7f7;fill-opacity:1;stroke-width:.264999"/><path d="m60 100 10 5 25-5z" style="fill:#e4e4e4;fill-opacity:1;stroke-width:.264999"/></svg>