<svg xmlns="http://www.w3.org/2000/svg" width="89.000" height="74.000" viewBox="33.000 73.000 89.000 74.000"><path d="m45 100-10 35 25 10 40-20 20-10-5-20-20-5-10-15H65l-5 20z" style="fill:#e4e4e4;fill-opacity:1;stroke-width:.264999"/><path d="m65 75 10 15-15 5Z" style="fill:#d5d5d5;fill-opacity:.56862748;stroke-width:.264999"/><path d="m65 75 10 15 10-15Z" style="fill:#f7f7f7;fill-opacity:1;stroke-width:.264999"/><path d="M85 75 75 90h20z" style="fill:#e4e4e4;fill-opacity:1;stroke-width:.264999"/><path d="m75 90-30 10h55ZM100 100l15-5-20-5z" style="fill:#f7f7f7;fill-opacity:1;stroke-width:.264999"/><path d="M75 90h20l5 10Z" style="fill:#fff;fill-opacity:1;stroke-width:.264999"/><path d="m100 100 20 15-40 20Z" style="fill:#f7f7f7;fill-opacity:1;stroke-width:.264999"/><path d="m35 135 25-10v20zM60 125l20 10 20-35z" style="fill:#dbdbdb;fill-opacity:1;stroke-width:.264999"/><path d="m55 110 5 15 40-25Z" style="fill:#f7f7f7;fill-opacity:1;stroke-width:.264999"/><path d="m45 100 10 10 45-10Z" style="fill:#fff;fill-opacity:1;stroke-width:.264999"/><path d="m55 110-20 25 10-35" style="fill:#f7f7f7;fill-opacity:1;stroke-width:.264999"/></svg>