<svg xmlns="http://www.w3.org/2000/svg" width="34" height="254" viewBox="58 13 34 254"><g style="display:inline"><path d="m85 265-20-55-5-55 5-45 15-95-5 95v45l10 60 5 50z" style="fill:#86ba40;fill-opacity:1;stroke-width:.264999"/><path d="M65 110h5l10-95Zm5 0-10 45 5-45z" style="fill:#c1dc99;fill-opacity:1;stroke-width:.264999"/><path d="m70 110 5 45 5-140Z" style="fill:#86ba40;fill-opacity:1;stroke-width:.264999"/><path d="m70 110-10 45h15Z" style="fill:#a2cb68;fill-opacity:1;stroke-width:.264999"/><path d="M70 110v45h5Z" style="fill:#86ba40;fill-opacity:1;stroke-width:.264999"/><path d="m70 155 15 60-25-60z" style="fill:#a2cb68;fill-opacity:1;stroke-width:.264999"/><path d="m60 155 25 110-20-55z" style="fill:#c1dc99;fill-opacity:1;stroke-width:.264999"/><path d="M85 215v50L60 155z" style="fill:#a2cb68;fill-opacity:1;stroke-width:.264999"/></g></svg>