<svg xmlns="http://www.w3.org/2000/svg" width="201.573" height="264.566" viewBox="0 0 53.333 70">
    <path d="M95 188.333c-13.333 0-26.667-11.666-26.667-27.5S81.667 125 95 125s26.666 20 26.666 35.833c0 15.834-13.333 27.5-26.666 27.5" style="fill:#2c89a0;fill-opacity:.803213;stroke-width:.264999" transform="translate(-68.333 -125)"/>
    <path d="m90 190 5-25 5 25z" style="fill:#f9f9f9;fill-opacity:.919679;stroke-width:.264999" transform="translate(-68.333 -125)"/>
    <path d="m95 190-15-20 5 20zm0 0h10l5-20z" style="fill:#f9f9f9;fill-opacity:.919679;stroke-width:.264999" transform="translate(-68.333 -125)"/>
    <path d="M95 186.667c-8.333 0-16.667-13.334-16.667-28.334S86.667 126.667 95 126.667s16.667 16.666 16.667 31.666-8.334 28.334-16.667 28.334" style="fill:#f9f9f9;fill-opacity:.200803;stroke-width:.264999" transform="translate(-68.333 -125)"/>
    <path d="m85 190 10-5 10 5-10 5z" style="fill:#f3f340;fill-opacity:.899598;stroke-width:.264999" transform="translate(-68.333 -125)"/>
</svg>
