<svg xmlns="http://www.w3.org/2000/svg" width="151.843" height="434.646" viewBox="0 0 40.175 115">
    <path d="m95 215-5-5s-2.556-20.161-5-30c-2.54-10.23-11.039-19.51-10-30 1.324-13.372 6.563-35 20-35s18.676 21.628 20 35c1.039 10.49-7.46 19.77-10 30-2.444 9.839-5 30-5 30z" style="fill:#aef;fill-opacity:.899598;stroke-width:.264999" transform="translate(-74.912 -115)"/>
    <path d="M95 210c-4.714 0-10 10-10 10l10 10 10-10s-5.286-10-10-10m0 5-5-40" style="fill:#045;fill-opacity:.502008;stroke-width:.264999" transform="translate(-74.912 -115)"/>
    <path d="M95 215s-11.376-43.122-10-65c.762-12.11 10-35 10-35s9.238 22.89 10 35c1.376 21.878-10 65-10 65" style="fill:#000;fill-opacity:.104418;stroke-width:.264999" transform="translate(-74.912 -115)"/>
</svg>
