<?xml version="1.0" encoding="UTF-8" standalone="no"?>
<!-- Created with Inkscape (http://www.inkscape.org/) -->

<svg
   width="210mm"
   height="297mm"
   viewBox="0 0 210 297"
   version="1.1"
   id="svg1"
   inkscape:version="1.4.4 (dcaf3e7, 2026-05-05)"
   sodipodi:docname="ground.svg"
   xmlns:inkscape="http://www.inkscape.org/namespaces/inkscape"
   xmlns:sodipodi="http://sodipodi.sourceforge.net/DTD/sodipodi-0.dtd"
   xmlns="http://www.w3.org/2000/svg"
   xmlns:svg="http://www.w3.org/2000/svg">
  <sodipodi:namedview
     id="namedview1"
     pagecolor="#ffffff"
     bordercolor="#000000"
     borderopacity="0.25"
     inkscape:showpageshadow="2"
     inkscape:pageopacity="0.0"
     inkscape:pagecheckerboard="0"
     inkscape:deskcolor="#d1d1d1"
     inkscape:document-units="mm"
     showgrid="true"
     inkscape:zoom="1.0396254"
     inkscape:cx="385.71585"
     inkscape:cy="1051.8211"
     inkscape:window-width="2123"
     inkscape:window-height="1237"
     inkscape:window-x="3059"
     inkscape:window-y="82"
     inkscape:window-maximized="0"
     inkscape:current-layer="layer1">
    <inkscape:grid
       id="grid1"
       units="mm"
       originx="0"
       originy="0"
       spacingx="0.99999998"
       spacingy="1"
       empcolor="#0099e5"
       empopacity="0.30196078"
       color="#0099e5"
       opacity="0.14901961"
       empspacing="5"
       enabled="true"
       visible="true" />
  </sodipodi:namedview>
  <defs
     id="defs1" />
  <g
     inkscape:label="Layer 1"
     inkscape:groupmode="layer"
     id="layer1">
    <path
       style="fill:#6c5d53;stroke-width:0.264999"
       d="M 0,297 40.000002,294.99999 55,294 l 20,0.99999 25,-2.58096 15,1.27249 25,-0.69154 17,2.00001 h 18 L 210,297 Z"
       id="path1" />
    <path
       style="fill:#536c53;stroke-width:0.264999;fill-opacity:0.50200802"
       d="M 55,294 47.000001,297 41,294.99999 Z"
       id="path2" />
    <path
       style="fill:#536c53;fill-opacity:0.502008;stroke-width:0.264999"
       d="m 55,294 8,3 12,-2.00001 z"
       id="path3" />
    <path
       style="fill:#536c53;fill-opacity:0.502008;stroke-width:0.264999"
       d="m 100,292.41903 v 2.58096 H 75 Z"
       id="path4" />
    <path
       style="fill:#536c53;fill-opacity:0.502008;stroke-width:0.264999"
       d="m 115,293.69152 25,-0.69154 v 2.00001 z"
       id="path5" />
    <path
       style="fill:#536c53;fill-opacity:0.502008;stroke-width:0.264999"
       d="M 175,294.99999 V 297 h 35 z"
       id="path6" />
    <path
       style="fill:#536c53;fill-opacity:0.502008;stroke-width:0.264999"
       d="M 41,294.99999 25,297 H 0 Z"
       id="path7" />
    <path
       style="fill:#483e37;fill-opacity:0.502008;stroke-width:0.264999"
       d="m 55.000001,294 -2,2.99999 L 63,297 Z"
       id="path8"
       sodipodi:nodetypes="cccc" />
    <path
       style="fill:#483e37;fill-opacity:0.502008;stroke-width:0.264999"
       d="M 41,294.99999 25,297 h 12.74614 z"
       id="path9" />
    <path
       style="fill:#483e37;fill-opacity:0.502008;stroke-width:0.264999"
       d="m 100,292.41903 15,1.27249 -15,1.30847 z"
       id="path10" />
    <path
       style="fill:#4c5634;fill-opacity:1;stroke-width:0.264999"
       d="m 140,292.99998 v 2.00001 h 17 z"
       id="path11" />
    <path
       style="fill:#483e37;fill-opacity:0.502008;stroke-width:0.264999"
       d="m 175,294.99999 -35,2 35,10e-6 z"
       id="path12"
       sodipodi:nodetypes="cccc" />
    <path
       style="fill:#483e37;fill-opacity:0.502008;stroke-width:0.264999"
       d="M 75,294.99999 100,297 H 73.000001 Z"
       id="path13" />
    <path
       style="fill:#483e37;fill-opacity:0.502008;stroke-width:0.264999"
       d="m 115,293.69152 0,1.30847 25,0 z"
       id="path14"
       sodipodi:nodetypes="cccc" />
    <path
       style="fill:#2d5016;fill-opacity:0.502008;stroke-width:0.264999"
       d="m 100,294.99999 h 15 v -1.30847 z"
       id="path15" />
    <path
       style="fill:#2d5016;fill-opacity:0.502008;stroke-width:0.264999"
       d="M 140,294.99999 V 297 l 35,-2.00001 z"
       id="path16" />
    <path
       style="fill:#2d5016;fill-opacity:0.502008;stroke-width:0.264999"
       d="M 75,294.99999 63,297 h 10.000001 z"
       id="path17" />
    <path
       style="fill:#5a4d44;fill-opacity:1;stroke-width:0.264999"
       d="M 75,294.99999 100,297 v -2.00001 z"
       id="path18" />
    <path
       style="fill:#5a4d44;fill-opacity:1;stroke-width:0.264999"
       d="M 100,294.99999 V 297 l 15,-2.00001 z"
       id="path19" />
    <path
       style="fill:#5a4d44;fill-opacity:1;stroke-width:0.264999"
       d="M 115,294.99999 140,297 v -2.00001 z"
       id="path20" />
  </g>
</svg>
